# xmcd CD database file generated by OrangeCD 6.4
#
# Track frame offsets:
#	150
#	13066
#	26898
#	38631
#	53169
#	62036
#	72579
#	83482
#	96132
#	109615
#	123962
#	134008
#	150572
#	162871
#	176078
#
# Disc length: 2642 seconds
#
# Revision: 0
# Processed by: cddbd v1.5.2PL0 Copyright (c) Steve Scherf et al.
# Submitted via: OrangeCD 6.4
#
DISCID=c50a500f
DTITLE=Various Artist - Deep South: The Story Of The Blues
DYEAR=2012
DGENRE=Rock and Roll
TTITLE0=Muddy Waters - I'm Your Hoochie Coochie Man
TTITLE1=Memphis Minnie - Me And My Chauffeur
TTITLE2=Sonny Boy Williamson - Don't Start Me To Talking
TTITLE3=Ray Charles - Losing Hand
TTITLE4=Elvis Presley - That's All Right
TTITLE5=Chuck Berry - Sweet Little Rock And Roller
TTITLE6=Chuck Berry - Roll Over Beethoven
TTITLE7=B.B. King - Every Day I Have The Blues
TTITLE8=Howlin' Wolf - Forty Four
TTITLE9=Elmore James - Dust My Blues
TTITLE10=John Lee Hooker - Dimples
TTITLE11=T-Bone Walker - T-Bone Blues
TTITLE12=B.B. King - Sugar Mama
TTITLE13=Muddy Waters - I Feel So Good
TTITLE14=John Mayall - That Good Old Rockin' Blues
EXTD=
EXTT0=
EXTT1=
EXTT2=
EXTT3=
EXTT4=
EXTT5=
EXTT6=
EXTT7=
EXTT8=
EXTT9=
EXTT10=
EXTT11=
EXTT12=
EXTT13=
EXTT14=
PLAYORDER=
